name C:\Users\antoi\Documents\MyRepositories\upper-imu-dc\Results\main_tracking\Case_76\FLX01_angularVelocities_bodyFrame.mot
datacolumns 4
datarows 129
range 0.51000000 1.79000000
endheader 
time	radius_imu_x	radius_imu_y	radius_imu_z	
          0.51000000	         -0.38224836	          0.21782631	          0.09185206	
          0.52000000	         -0.38360821	          0.21910401	          0.09720199	
          0.53000000	         -0.38567784	          0.22192880	          0.10334348	
          0.54000000	         -0.38903976	          0.22657052	          0.10960242	
          0.55000000	         -0.39403532	          0.23316690	          0.11581713	
          0.56000000	         -0.40087724	          0.24168123	          0.12195052	
          0.57000000	         -0.40970438	          0.25185351	          0.12799937	
          0.58000000	         -0.42061181	          0.26321211	          0.13395761	
          0.59000000	         -0.43365595	          0.27510786	          0.13981507	
          0.60000000	         -0.44885952	          0.28677238	          0.14556495	
          0.61000000	         -0.46621613	          0.29739270	          0.15121096	
          0.62000000	         -0.48569596	          0.30620279	          0.15677054	
          0.63000000	         -0.50725214	          0.31258161	          0.16227739	
          0.64000000	         -0.53082618	          0.31613073	          0.16778497	
          0.65000000	         -0.55635261	          0.31670627	          0.17336830	
          0.66000000	         -0.58376008	          0.31440722	          0.17912407	
          0.67000000	         -0.61296867	          0.30954230	          0.18516990	
          0.68000000	         -0.64388602	          0.30259558	          0.19164267	
          0.69000000	         -0.67640403	          0.29420305	          0.19869538	
          0.70000000	         -0.71039638	          0.28513680	          0.20649300	
          0.71000000	         -0.74571664	          0.27628282	          0.21520778	
          0.72000000	         -0.78219535	          0.26859993	          0.22501446	
          0.73000000	         -0.81963679	          0.26305705	          0.23608528	
          0.74000000	         -0.85782109	          0.26055690	          0.24858072	
          0.75000000	         -0.89651029	          0.26186079	          0.26264216	
          0.76000000	         -0.93543280	          0.26752214	          0.27839613	
          0.77000000	         -0.97431821	          0.27783527	          0.29593128	
          0.78000000	         -1.01290286	          0.29283045	          0.31529958	
          0.79000000	         -1.05090487	          0.31219414	          0.33652247	
          0.80000000	         -1.08803603	          0.33549906	          0.35953677	
          0.81000000	         -1.12440447	          0.36150187	          0.38419012	
          0.82000000	         -1.16002525	          0.38762852	          0.40955727	
          0.83000000	         -1.19522946	          0.41061244	          0.43487274	
          0.84000000	         -1.23017522	          0.42916139	          0.45998348	
          0.85000000	         -1.26453981	          0.44259538	          0.48472044	
          0.86000000	         -1.29810990	          0.44984578	          0.50899557	
          0.87000000	         -1.33073367	          0.45013295	          0.53277499	
          0.88000000	         -1.36233736	          0.44283512	          0.55605572	
          0.89000000	         -1.39270270	          0.42754741	          0.57895899	
          0.90000000	         -1.42162210	          0.40407044	          0.60158564	
          0.91000000	         -1.44896798	          0.37247569	          0.62398254	
          0.92000000	         -1.47454303	          0.33314084	          0.64626816	
          0.93000000	         -1.49818666	          0.28677092	          0.66853970	
          0.94000000	         -1.51977671	          0.23440640	          0.69085860	
          0.95000000	         -1.53923901	          0.17743860	          0.71325709	
          0.96000000	         -1.55657394	          0.11758980	          0.73570815	
          0.97000000	         -1.57181282	          0.05686254	          0.75814589	
          0.98000000	         -1.58502305	         -0.00253598	          0.78046782	
          0.99000000	         -1.59632939	         -0.05831046	          0.80252228	
          1.00000000	         -1.60589923	         -0.10822101	          0.82411647	
          1.01000000	         -1.61391089	         -0.15023324	          0.84502973	
          1.02000000	         -1.62055516	         -0.18265107	          0.86501066	
          1.03000000	         -1.62603054	         -0.20420695	          0.88377909	
          1.04000000	         -1.63051786	         -0.21410596	          0.90103985	
          1.05000000	         -1.63417796	         -0.21202719	          0.91649073	
          1.06000000	         -1.63715791	         -0.19810031	          0.92983049	
          1.07000000	         -1.63958886	         -0.17286305	          0.94077407	
          1.08000000	         -1.64157716	         -0.13719986	          0.94907010	
          1.09000000	         -1.64320680	         -0.09226241	          0.95450973	
          1.10000000	         -1.64454891	         -0.03937957	          0.95692854	
          1.11000000	         -1.64565286	          0.02003054	          0.95621216	
          1.12000000	         -1.64654030	          0.08453306	          0.95229728	
          1.13000000	         -1.64721345	          0.15272948	          0.94516594	
          1.14000000	         -1.64765914	          0.22329065	          0.93484224	
          1.15000000	         -1.64784987	          0.29497469	          0.92139223	
          1.16000000	         -1.64774612	          0.36663588	          0.90492489	
          1.17000000	         -1.64729948	          0.43723145	          0.88559182	
          1.18000000	         -1.64645565	          0.50583168	          0.86358492	
          1.19000000	         -1.64515670	          0.57163356	          0.83913186	
          1.20000000	         -1.64334272	          0.63397494	          0.81248938	
          1.21000000	         -1.64095371	          0.69234527	          0.78393416	
          1.22000000	         -1.63793156	          0.74638906	          0.75375150	
          1.23000000	         -1.63422060	          0.79589873	          0.72222261	
          1.24000000	         -1.62976657	          0.84079508	          0.68961311	
          1.25000000	         -1.62451550	          0.88109747	          0.65616578	
          1.26000000	         -1.61841365	          0.91688684	          0.62209657	
          1.27000000	         -1.61140836	          0.94826889	          0.58759470	
          1.28000000	         -1.60344594	          0.97534720	          0.55282908	
          1.29000000	         -1.59447360	          0.99820870	          0.51795597	
          1.30000000	         -1.58443786	          1.01693620	          0.48314269	
          1.31000000	         -1.57328868	          1.03159353	          0.44853145	
          1.32000000	         -1.56100583	          1.04226809	          0.41427032	
          1.33000000	         -1.54758564	          1.04906929	          0.38051279	
          1.34000000	         -1.53302910	          1.05213161	          0.34738493	
          1.35000000	         -1.51737112	          1.05163801	          0.31501148	
          1.36000000	         -1.50068032	          1.04782228	          0.28349976	
          1.37000000	         -1.48305284	          1.04097253	          0.25293271	
          1.38000000	         -1.46461194	          1.03144235	          0.22337286	
          1.39000000	         -1.44550650	          1.01966103	          0.19486340	
          1.40000000	         -1.42590869	          1.00613960	          0.16743077	
          1.41000000	         -1.40600916	          0.99146494	          0.14108834	
          1.42000000	         -1.38600587	          0.97627481	          0.11583714	
          1.43000000	         -1.36609269	          0.96121573	          0.09167155	
          1.44000000	         -1.34645525	          0.94688842	          0.06858791	
          1.45000000	         -1.32725923	          0.93377389	          0.04656577	
          1.46000000	         -1.30864137	          0.92218625	          0.02558968	
          1.47000000	         -1.29070293	          0.91222805	          0.00565053	
          1.48000000	         -1.27351355	          0.90377778	         -0.01326539	
          1.49000000	         -1.25712375	          0.89650778	         -0.03116038	
          1.50000000	         -1.24156537	          0.88992140	         -0.04803160	
          1.51000000	         -1.22685770	          0.88341006	         -0.06387330	
          1.52000000	         -1.21301557	          0.87632163	         -0.07867704	
          1.53000000	         -1.20005403	          0.86803204	         -0.09243481	
          1.54000000	         -1.18799040	          0.85801652	         -0.10514364	
          1.55000000	         -1.17684559	          0.84591473	         -0.11680917	
          1.56000000	         -1.16664400	          0.83157965	         -0.12744991	
          1.57000000	         -1.15741062	          0.81510048	         -0.13710685	
          1.58000000	         -1.14917146	          0.79680074	         -0.14584541	
          1.59000000	         -1.14195159	          0.77720560	         -0.15376036	
          1.60000000	         -1.13577225	          0.75698678	         -0.16097505	
          1.61000000	         -1.13064895	          0.73688693	         -0.16763474	
          1.62000000	         -1.12658719	          0.71763189	         -0.17390467	
          1.63000000	         -1.12357577	          0.69984381	         -0.17996042	
          1.64000000	         -1.12158701	          0.68397550	         -0.18597000	
          1.65000000	         -1.12057305	          0.67026876	         -0.19209740	
          1.66000000	         -1.12045793	          0.65874556	         -0.19850778	
          1.67000000	         -1.12113914	          0.64922449	         -0.20535185	
          1.68000000	         -1.12249083	          0.64134822	         -0.21276549	
          1.69000000	         -1.12437207	          0.63462387	         -0.22087874	
          1.70000000	         -1.12664395	          0.62848107	         -0.22980341	
          1.71000000	         -1.12916859	          0.62233088	         -0.23962151	
          1.72000000	         -1.13176936	          0.61561241	         -0.25039596	
          1.73000000	         -1.13427285	          0.60784665	         -0.26219290	
          1.74000000	         -1.13657934	          0.59869817	         -0.27501742	
          1.75000000	         -1.13860691	          0.58797999	         -0.28884457	
          1.76000000	         -1.14023212	          0.57565714	         -0.30368218	
          1.77000000	         -1.14136526	          0.56187238	         -0.31949003	
          1.78000000	         -1.14196193	          0.54692840	         -0.33619324	
          1.79000000	         -1.14196796	          0.53124497	         -0.35374362	
